<svg width="24" height="24" viewBox="0 0 24 24" fill="none" xmlns="http://www.w3.org/2000/svg">
<path opacity="0.4" d="M2 6.447C2 3.996 4.03024 2 6.52453 2H11.4856C13.9748 2 16 3.99 16 6.437V17.553C16 20.005 13.9698 22 11.4744 22H6.51537C4.02515 22 2 20.01 2 17.563V16.623V6.447Z" fill="#CC5F5F"/>
<path d="M21.7787 11.4541L18.9329 8.54506C18.6388 8.24506 18.1655 8.24506 17.8723 8.54706C17.5802 8.84906 17.5811 9.33606 17.8743 9.63606L19.4335 11.2291H17.9386H9.54826C9.13434 11.2291 8.79834 11.5741 8.79834 11.9991C8.79834 12.4251 9.13434 12.7691 9.54826 12.7691H19.4335L17.8743 14.3621C17.5811 14.6621 17.5802 15.1491 17.8723 15.4511C18.0194 15.6021 18.2113 15.6781 18.4041 15.6781C18.595 15.6781 18.7868 15.6021 18.9329 15.4531L21.7787 12.5451C21.9199 12.4001 21.9998 12.2041 21.9998 11.9991C21.9998 11.7951 21.9199 11.5991 21.7787 11.4541Z" fill="#CC5F5F"/>
</svg>
