<svg width="52" height="52" viewBox="0 0 52 52" fill="none" xmlns="http://www.w3.org/2000/svg">
<path d="M21.9978 12.0364C22.1081 12.261 22.181 12.5016 22.2137 12.7488L22.8169 21.7187L23.1164 26.2271C23.1195 26.6907 23.1922 27.1514 23.3323 27.5942C23.694 28.4533 24.564 28.9993 25.5106 28.9613L39.9347 28.0178C40.5593 28.0075 41.1625 28.2411 41.6115 28.6672C41.9857 29.0223 42.2273 29.4868 42.3034 29.9865L42.3289 30.2898C41.732 38.5551 35.6617 45.4489 27.4136 47.2284C19.1655 49.008 10.7075 45.2488 6.6317 37.9917C5.45667 35.8834 4.72274 33.566 4.47299 31.1756C4.36866 30.4679 4.32272 29.7532 4.33562 29.0383C4.32274 20.177 10.633 12.5162 19.4662 10.6693C20.5293 10.5038 21.5716 11.0666 21.9978 12.0364Z" fill="#97A5EB"/>
<path opacity="0.4" d="M27.8851 4.33576C37.7648 4.58711 46.0684 11.6915 47.6667 21.2606L47.6515 21.3312L47.6078 21.4339L47.6139 21.7158C47.5913 22.0892 47.4471 22.4485 47.1987 22.7387C46.9398 23.041 46.5862 23.2469 46.1968 23.3268L45.9594 23.3594L29.3177 24.4376C28.7641 24.4922 28.213 24.3137 27.8013 23.9466C27.4583 23.6406 27.239 23.2275 27.177 22.7824L26.06 6.16495C26.0406 6.10876 26.0406 6.04785 26.06 5.99166C26.0753 5.53361 26.2769 5.10064 26.6198 4.78948C26.9628 4.47833 27.4185 4.31492 27.8851 4.33576Z" fill="#FFCC91"/>
</svg>
