<svg width="14" height="14" viewBox="0 0 14 14" fill="none" xmlns="http://www.w3.org/2000/svg">
<path d="M5.09566 12.8548V10.8102C5.09565 10.2921 5.51695 9.87118 6.03879 9.86792H7.95491C8.47909 9.86792 8.90402 10.2898 8.90402 10.8102V12.8489C8.904 13.2982 9.26919 13.6634 9.7218 13.6667H11.0291C11.6396 13.6683 12.2257 13.4286 12.6579 13.0005C13.0902 12.5725 13.3332 11.9912 13.3332 11.3851V5.57727C13.3332 5.08763 13.1145 4.62318 12.7362 4.30904L8.29516 0.782886C7.51885 0.166122 6.41009 0.186046 5.65676 0.830297L1.31118 4.30904C0.914998 4.61392 0.678205 5.07975 0.666504 5.57727V11.3791C0.666504 12.6425 1.69809 13.6667 2.97062 13.6667H4.24803C4.46595 13.6683 4.6755 13.5834 4.83015 13.431C4.98481 13.2786 5.07179 13.0711 5.07178 12.8548H5.09566Z" fill="#5570F1"/>
</svg>
