<svg xmlns="http://www.w3.org/2000/svg" width="16" height="16" viewBox="0 0 16 16" fill="currentColor">
  <mask id="mask0_1_24713" style="mask-type:alpha" maskUnits="userSpaceOnUse" x="0" y="0" width="16" height="16">
    <rect width="16" height="16" fill="currentColor"/>
  </mask>
  <g mask="url(#mask0_1_24713)">
    <path d="M8.00125 14.3334C7.12525 14.3334 6.30186 14.1671 5.53108 13.8347C4.7603 13.5022 4.08986 13.0511 3.51975 12.4812C2.94964 11.9113 2.49825 11.2411 2.16558 10.4707C1.83303 9.70024 1.66675 8.87708 1.66675 8.00119C1.66675 7.12519 1.83297 6.3018 2.16541 5.53102C2.49786 4.76024 2.94903 4.0898 3.51891 3.51969C4.0888 2.94958 4.75897 2.49819 5.52941 2.16552C6.29986 1.83296 7.12303 1.66669 7.99891 1.66669C8.87491 1.66669 9.6983 1.83291 10.4691 2.16535C11.2399 2.4978 11.9103 2.94896 12.4804 3.51885C13.0505 4.08874 13.5019 4.75891 13.8346 5.52935C14.1671 6.2998 14.3334 7.12296 14.3334 7.99885C14.3334 8.87485 14.1672 9.69824 13.8347 10.469C13.5023 11.2398 13.0511 11.9102 12.4812 12.4804C11.9114 13.0505 11.2412 13.5019 10.4707 13.8345C9.7003 14.1671 8.87714 14.3334 8.00125 14.3334ZM8.00008 13.3334C9.48897 13.3334 10.7501 12.8167 11.7834 11.7834C12.8167 10.75 13.3334 9.48891 13.3334 8.00002C13.3334 6.51113 12.8167 5.25002 11.7834 4.21669C10.7501 3.18335 9.48897 2.66669 8.00008 2.66669C6.51119 2.66669 5.25008 3.18335 4.21675 4.21669C3.18341 5.25002 2.66675 6.51113 2.66675 8.00002C2.66675 9.48891 3.18341 10.75 4.21675 11.7834C5.25008 12.8167 6.51119 13.3334 8.00008 13.3334Z" fill="currentColor"/>
  </g>
</svg>
