<svg xmlns="http://www.w3.org/2000/svg" width="16" height="16" viewBox="0 0 16 16" fill="var(--primary-color)">
<mask id="mask0_1_24729" style="mask-type:alpha" maskUnits="userSpaceOnUse" x="0" y="0" width="16" height="16">
<rect width="16" height="16" fill="#D9D9D9"/>
</mask>
<g mask="url(#mask0_1_24729)">
<path d="M5.32577 13.8334C5.107 13.8334 4.90616 13.7804 4.72327 13.6744C4.54028 13.5684 4.39411 13.4205 4.28477 13.2309L1.60394 8.60252C1.49461 8.41285 1.43994 8.21202 1.43994 8.00002C1.43994 7.78802 1.49461 7.58719 1.60394 7.39752L4.28477 2.76919C4.39411 2.57952 4.54028 2.43169 4.72327 2.32569C4.90616 2.21969 5.107 2.16669 5.32577 2.16669H10.6744C10.8932 2.16669 11.0941 2.21969 11.2769 2.32569C11.4599 2.43169 11.6061 2.57952 11.7154 2.76919L14.3963 7.39752C14.5056 7.58719 14.5603 7.78802 14.5603 8.00002C14.5603 8.21202 14.5056 8.41285 14.3963 8.60252L11.7154 13.2309C11.6061 13.4205 11.4599 13.5684 11.2769 13.6744C11.0941 13.7804 10.8932 13.8334 10.6744 13.8334H5.32577ZM5.31927 12.8334H10.6744C10.7087 12.8334 10.7418 12.8248 10.7738 12.8077C10.8059 12.7906 10.8326 12.765 10.8539 12.7309L13.5181 8.10252C13.5394 8.06841 13.5501 8.03424 13.5501 8.00002C13.5501 7.9658 13.5394 7.93163 13.5181 7.89752L10.8539 3.26919C10.8326 3.23508 10.8059 3.20946 10.7738 3.19235C10.7418 3.17524 10.7087 3.16669 10.6744 3.16669H5.31927C5.28516 3.16669 5.25311 3.17524 5.22311 3.19235C5.19322 3.20946 5.16761 3.23508 5.14627 3.26919L2.46544 7.89752C2.44411 7.93163 2.43344 7.9658 2.43344 8.00002C2.43344 8.03424 2.44411 8.06841 2.46544 8.10252L5.14627 12.7309C5.16761 12.765 5.19322 12.7906 5.22311 12.8077C5.25311 12.8248 5.28516 12.8334 5.31927 12.8334Z" fill="currentColor"/>
</g>
</svg>